<svg xmlns="http://www.w3.org/2000/svg" xmlns:xlink="http://www.w3.org/1999/xlink" version="1.1" id="Layer_1" x="0px" y="0px" style="enable-background:new 0 0 1080 1080;" xml:space="preserve" viewBox="529.82 580.51 103.64 118.35">
<style type="text/css">
	.st0{fill:#1D342E;}
</style>
<path id="Path_16_00000146469623281520778110000014139900181014967463_" class="st0" d="M633.45,614.02  c-6.56-1.65-12.49-5.34-16.86-10.46c-4.32-5.44-6.88-12.11-7.26-19.1c-1.12-0.37-5.07-1.12-10.08-2.08  c-5.82-0.96-11.69-1.6-17.61-1.87c-5.76,0.27-11.53,0.91-17.24,1.87c-5.44,0.96-9.71,2.08-10.09,2.08  c-0.37,6.94-2.88,13.61-7.15,19.1c-4.54,5.23-10.62,8.91-17.34,10.46c0,0.27,0,1.33,0.11,3.31c0.21,4.06,0.69,8.06,1.33,12.06v0.37  c1.17,5.5,2.61,10.94,4.32,16.27c1.97,5.39,4.43,10.67,7.26,15.63c2.93,5.44,6.4,10.57,10.35,15.26c3.31,3.58,6.88,6.94,10.62,10.09  c5.5,4.59,11.53,8.54,17.88,11.85c4.27-2.19,8.38-4.7,12.33-7.52c7.31-5.18,13.82-11.31,19.32-18.36c6.19-8.22,11.21-17.34,14.78-27  c1.76-5.44,3.09-10.99,3.9-16.65C633.07,624.37,633.55,619.19,633.45,614.02 M589.96,655.64l-8.64,2.35l-7.74,2.08l-5.07-18.84  h-11.42c-0.05-9.02,7.26-16.38,16.27-16.43c0.43,0,0.8,0,1.23,0.05c2.19,0.11,4.38,0.75,6.3,1.87c5.6,2.99,9.12,8.8,9.12,15.15  L589.96,655.64z M596.36,663.43c-1.01-3.47-2.35-8.64-2.35-8.64v-13.07c0.05-10.09-7.1-18.84-17.02-20.81  c-1.17-0.27-2.35-0.37-3.58-0.37c-3.41-0.05-6.78,0.85-9.71,2.61c-1.39,0.75-2.72,1.65-3.95,2.72l-2.24-8.38l-0.11-0.75  c1.28-0.8,2.56-1.49,3.95-2.08c3.79-1.76,7.9-2.72,12.06-2.72c16.27-0.05,29.67,12.91,30.04,29.19v13.66l2.24,8.64L596.36,663.43z"/>
</svg>