<svg xmlns="http://www.w3.org/2000/svg" xmlns:xlink="http://www.w3.org/1999/xlink" version="1.1" id="Layer_1" x="0px" y="0px" style="enable-background:new 0 0 1080 1080;" xml:space="preserve" viewBox="278.66 448.36 122.66 113.37">
<style type="text/css">
	.st0{fill-rule:evenodd;clip-rule:evenodd;fill:#D9FCA2;}
	.st1{fill:#1D342E;}
</style>
<g id="Group_6" transform="translate(573.617 2067)">
	<path id="Path_25" class="st0" d="M-294.96-1563.21L-294.96-1563.21c1.07-0.12,2.12-0.32,3.16-0.61c4.09-0.93,8.35-0.72,12.32,0.61   c2.55,0.75,2.7,0.75,2.87-1.94c0.81-6.93,2.64-13.71,5.39-20.12c2.64-6.75,6.75-12.87,12-17.86c0.61-0.43,1.36-0.9,1.36-1.65   c-0.61-0.58-1.04-0.29-1.65-0.14c-18.06,4.41-31.83,19.07-35.13,37.37c-0.14,0.43-0.14,0.75-0.29,1.19L-294.96-1563.21z"/>
	<path id="Path_26" class="st0" d="M-269.45-1521.03L-269.45-1521.03l6.32-0.75c-0.2,2.87,0.61,5.74,2.26,8.12   c1.42,1.54,3.45,2.38,5.57,2.26c1.57,0,3.13-0.43,4.49-1.22c1.19-0.72,2.12-1.83,2.55-3.16c0.55-2.15,0.81-4.38,0.75-6.61v-36.18   h6.9v35.71c0.17,3.48-0.35,6.93-1.51,10.2c-1.13,2.32-2.9,4.23-5.1,5.57c-2.52,1.25-5.3,1.88-8.09,1.8   c-3.88,0.23-7.71-1.19-10.49-3.91C-268.46-1512.53-269.74-1516.77-269.45-1521.03"/>
	<path id="Path_27" class="st0" d="M-232.05-1580.75c2.29,6.41,5.62,12.41,9.83,17.77c-5.91-1.65-11.97-2.72-18.09-3.22   c-6.41-0.35-12.81,0.2-19.05,1.62c-3.77,0.72-7.51,1.71-11.13,3.01c-1.51,0.58-1.94,0-1.83-1.36c0.32-3.16,1.07-6.15,1.68-9.31   c1.57-8.75,5.16-17.05,10.49-24.18c2.64-3.77,6.26-6.73,10.49-8.55c3.62-1.36,3.62-1.36,3.62-5.39c0.14-1.68-0.58-3.62,1.04-5.1   h1.94c1.94,2.12,0,6.93,1.04,9.31c0.75,1.36,2.84,0.9,4.2,1.51c0.75,0.38,1.48,0.81,2.17,1.3v2.84c0.03,3.01,0.32,6,0.81,8.96v0.43   l0.17,0.75l0.2,1.04C-233.82-1586.37-233.04-1583.53-232.05-1580.75"/>
	<path id="Path_28" class="st1" d="M-172.31-1600.49c-3.57-0.87-6.78-2.81-9.19-5.62c-2.38-2.96-3.74-6.58-3.94-10.38   c-0.52-0.2-2.75-0.61-5.48-1.22c-3.13-0.52-6.32-0.81-9.51-0.93c-3.16,0.12-6.32,0.43-9.45,0.93c-2.96,0.61-5.28,1.22-5.48,1.22   c-0.14,3.8-1.51,7.42-3.88,10.38c-1.13,1.36-2.49,2.52-4,3.42c-1.51,0.96-3.16,1.65-4.9,2.09c-0.14,0.09-0.32,0.12-0.46,0.14   c0,0.32,0,1.74,0.2,4.15c0.14,1.22,0.26,2.61,0.61,4.29v0.2c0.58,2.99,1.33,5.94,2.26,8.84c2.06,5.74,5.04,11.07,8.84,15.86   c0.29,0.29,0.52,0.61,0.72,0.93c1.01,1.01,2,2.09,3.07,3.07l0.26,0.26c3.65,3.39,7.74,6.26,12.18,8.58   c6.7-3.39,12.58-8.2,17.19-14.12c3.39-4.44,6.09-9.33,7.97-14.58c1.04-2.93,1.77-5.94,2.15-9.04   C-172.51-1594.83-172.25-1597.65-172.31-1600.49 M-195.96-1578.6l-2.35,0.61l-6.55,1.8l-2.72-10.23h-6.23c0-4.93,4-8.93,8.9-8.93   c0.2,0,0.41,0,0.58,0.03c4.75,0.43,8.41,4.44,8.38,9.25V-1578.6z M-192.48-1574.37c-0.52-1.88-1.28-4.7-1.28-4.7v-7.1   c0.03-6.23-4.93-11.36-11.19-11.51c-1.86-0.03-3.68,0.46-5.28,1.39c-0.46,0.2-0.9,0.46-1.28,0.81c-0.26,0.2-0.61,0.46-0.87,0.67   l-0.46-1.74l-0.81-3.22c0.7-0.43,1.39-0.81,2.15-1.13c2.06-0.96,4.29-1.48,6.55-1.48c8.84-0.03,16.12,7.02,16.32,15.86v7.42   l1.22,4.7L-192.48-1574.37z"/>
</g>
</svg>