<svg xmlns="http://www.w3.org/2000/svg" xmlns:xlink="http://www.w3.org/1999/xlink" version="1.1" id="Layer_1" x="0px" y="0px" style="enable-background:new 0 0 1080 1080;" xml:space="preserve" viewBox="398.58 454.94 117.62 99.23">
<style type="text/css">
	.st0{fill-rule:evenodd;clip-rule:evenodd;fill:#D9FCA2;}
	.st1{fill:#1D1D1D;}
</style>
<g id="Group_8" transform="translate(921.617 2069.593)">
	<path id="Path_17" class="st0" d="M-433.69-1542.5l-3.13-1.68c-6.55-3.42-12.44-7.97-17.39-13.45l-0.06-0.06l-0.06-0.14   c-4.7-5.62-8.38-12.03-10.84-18.93c-0.93-2.78-1.71-5.62-2.35-8.49l-0.2-1.07l-0.14-0.72v-0.06c-0.46,0.2-0.96,0.29-1.48,0.26   c-3.01-0.06-5.88-0.06-8.9-0.06c-2.81,0-5.48,0-8.29,0.06c-1.68,0-2.41-0.46-2.26-2.15c0.06-0.93,0.06-1.83,0-2.75   c-0.14-2.09,0.81-2.81,2.87-2.61c5.16,0,10.44,0.06,15.74,0c0.52-0.06,1.07-0.03,1.59,0.06c-0.06-1.01-0.06-1.74-0.06-2.15v-3.07   c-6.7-0.06-13.39-0.06-20.09,0c-3.45-0.09-6.32,2.64-6.44,6.09c0,0.12,0,0.23,0,0.32c-0.14,1.8-0.14,3.62,0,5.42   c0.2,2.15-0.46,3.13-2.87,3.01c-6.09-0.26-12.12-0.14-17.94,0c-3.51-0.29-6.61,2.29-6.9,5.8c-0.03,0.35-0.03,0.67,0,1.01   c-0.06,4.15-0.06,8.38-0.06,12.44h-0.09v25.51h0.06c0,5.48,0,10.99,0.06,16.52c0,5.57,2.35,7.97,7.97,7.97h36.87   c12.78,0,25.42,0,38.15-0.14c3.54,0.35,6.7-2.23,7.07-5.77c0.03-0.29,0.03-0.55,0.03-0.84c0.06-5.88-0.06-11.77,0-17.74v-3.07   L-433.69-1542.5z"/>
	<path id="Path_18" class="st1" d="M-405.43-1596.44c-3.57-0.9-6.78-2.9-9.16-5.68c-2.35-2.96-3.74-6.58-3.94-10.38   c-0.52-0.2-2.75-0.61-5.48-1.22c-3.16-0.46-6.32-0.78-9.51-0.93c-3.16,0.14-6.32,0.46-9.42,0.93c-2.96,0.61-5.28,1.22-5.48,1.22   c-0.17,3.77-1.54,7.42-3.88,10.38c-2.41,2.75-5.62,4.73-9.16,5.62c-0.09,0-0.14,0.03-0.2,0.06c0.06,2.81,0.32,5.59,0.81,8.38v0.2   c0.55,2.96,1.33,5.88,2.26,8.75c2.23,6.12,5.45,11.83,9.57,16.87c4.44,4.87,9.68,8.9,15.54,11.91c0.26-0.12,0.52-0.26,0.72-0.46   c6.41-3.3,12-7.94,16.47-13.6c3.39-4.46,6.09-9.42,7.97-14.73c1.04-2.9,1.77-5.91,2.15-8.96   C-405.63-1590.82-405.37-1593.63-405.43-1596.44 M-429.05-1572.67l-3.83,1.01l-5.07,1.33l-2.75-10.18h-6.23   c0-1.48,0.38-2.93,1.07-4.23c1.62-3.1,4.93-4.96,8.44-4.7c4.75,0.38,8.44,4.38,8.38,9.16V-1572.67z M-425.57-1568.53   c-0.52-1.88-1.28-4.61-1.28-4.61v-7.16c0-6.23-4.96-11.31-11.19-11.45c-1.86,0-3.68,0.46-5.28,1.33c-0.75,0.43-1.48,0.93-2.15,1.48   l-1.28-4.87c0.7-0.46,1.39-0.87,2.15-1.22c2.06-0.93,4.29-1.42,6.55-1.39c8.84-0.03,16.12,7.02,16.32,15.86v7.42l1.22,4.61   L-425.57-1568.53z"/>
</g>
</svg>