<svg xmlns="http://www.w3.org/2000/svg" xmlns:xlink="http://www.w3.org/1999/xlink" version="1.1" id="Layer_1" x="0px" y="0px" style="enable-background:new 0 0 1080 1080;" xml:space="preserve" viewBox="112.96 371.69 121.31 101.32">
<style type="text/css">
	.st0{fill:#D9FCA2;}
	.st1{fill:#1D342E;}
</style>
<g id="Group_7" transform="translate(225.617 2068.945)">
	<path id="Path_23" class="st0" d="M-16.36-1626.7l-3.28,1.68l-3.13-1.74c-6.52-3.42-12.41-7.94-17.39-13.39l-0.06-0.14l-0.06-0.06   c-4.7-5.65-8.38-12.09-10.84-19.02c-0.96-2.78-1.74-5.62-2.35-8.49l-0.2-1.01l-0.14-0.81v-0.46c-0.49-2.93-0.78-5.91-0.81-8.9   v-0.55h-58.04v83.66h41.02v-31.39c0.03-1.94,1.59-3.51,3.54-3.48l0,0h8.44c1.91-0.03,3.51,1.48,3.54,3.42c0,0.03,0,0.06,0,0.06   v31.39h41.02v-31.54C-15.49-1627.16-15.9-1626.93-16.36-1626.7 M-79.47-1616.53c-0.03,1.91-1.57,3.45-3.48,3.48h-8.49   c-1.94,0-3.51-1.54-3.54-3.48v-10.78c0.03-1.94,1.59-3.51,3.54-3.48l0,0h8.49c1.91,0,3.48,1.57,3.48,3.48V-1616.53z    M-79.47-1654.36c0,1.91-1.57,3.48-3.48,3.48h-8.49c-1.94,0.03-3.54-1.54-3.54-3.48l0,0v-10.7c0.03-1.94,1.59-3.51,3.54-3.48l0,0   h8.49c1.91,0,3.48,1.57,3.48,3.48V-1654.36z M-56.1-1654.36c0,1.91-1.57,3.48-3.48,3.48c-0.03,0-0.06,0-0.06,0h-8.44   c-1.94,0.03-3.54-1.54-3.54-3.48l0,0v-10.7c0.03-1.94,1.59-3.51,3.54-3.48l0,0h8.44c1.91-0.03,3.51,1.48,3.54,3.42   c0,0.03,0,0.06,0,0.06V-1654.36z M-32.74-1616.53c0,1.91-1.57,3.48-3.48,3.48h-8.58c-1.91-0.03-3.45-1.57-3.48-3.48v-10.78   c0-1.91,1.57-3.48,3.48-3.48h8.55c1.91,0,3.48,1.54,3.48,3.42c0,0.03,0,0.03,0,0.06L-32.74-1616.53z"/>
	<path id="Path_24" class="st1" d="M8.63-1679.05c-3.57-0.9-6.78-2.9-9.16-5.68c-2.38-2.96-3.77-6.58-3.94-10.38   c-0.52-0.2-2.75-0.52-5.48-1.13c-3.13-0.52-6.32-0.87-9.51-1.01c-3.16,0.14-6.32,0.46-9.45,1.01c-2.96,0.61-5.28,1.13-5.48,1.13   c-0.14,3.8-1.51,7.42-3.88,10.38c-2.03,2.38-4.67,4.17-7.62,5.16c-0.55,0.2-1.13,0.32-1.74,0.52c0.06,2.84,0.32,5.65,0.81,8.44   v0.14c0.14,0.72,0.26,1.54,0.46,2.35c0.46,1.94,1.01,4.15,1.8,6.49c1.39,3.77,3.16,7.36,5.3,10.75c1.28,2.12,2.7,4.12,4.29,6.03   c4.41,4.87,9.68,8.93,15.54,11.91c1.54-0.81,3.01-1.68,4.41-2.55c4.87-3.1,9.19-6.99,12.78-11.51c3.39-4.46,6.06-9.39,7.97-14.67   c1.04-2.9,1.74-5.91,2.15-8.96C8.43-1673.37,8.72-1676.21,8.63-1679.05 M-15-1655.28h-0.06l-8.84,2.41l-2.75-10.23h-6.23   c-0.03-0.41,0.03-0.81,0.14-1.22c0.55-4.67,4.67-8.09,9.36-7.71c4.46,0.35,7.97,3.91,8.29,8.38c0.06,0.29,0.09,0.58,0.06,0.87   L-15-1655.28z M-11.52-1651.05c-0.52-1.94-1.28-4.7-1.28-4.7v-7.1c0-2.46-0.78-4.87-2.26-6.81c-2-2.93-5.36-4.7-8.9-4.67   c-1.86-0.03-3.68,0.46-5.28,1.39c-0.75,0.41-1.48,0.9-2.15,1.48l-1.28-4.96c0.67-0.41,1.33-0.81,2.15-1.22   c2.06-0.9,4.29-1.39,6.55-1.39c3.16,0,6.26,0.96,8.9,2.67c4.58,2.81,7.39,7.8,7.42,13.19v7.42l1.22,4.7H-11.52z"/>
</g>
</svg>