<svg xmlns="http://www.w3.org/2000/svg" xmlns:xlink="http://www.w3.org/1999/xlink" version="1.1" id="Layer_1" x="0px" y="0px" style="enable-background:new 0 0 1080 1080;" xml:space="preserve" viewBox="517.15 449.31 131.35 108.98">
<style type="text/css">
	.st0{fill-rule:evenodd;clip-rule:evenodd;fill:#D9FCA2;}
	.st1{fill:#1D342E;}
</style>
<g id="Group_9" transform="translate(1268.617 2067.648)">
	<path id="Path_15" class="st0" d="M-651.52-1547.87c-2.23-1.19-4.41-2.46-6.49-3.88v1.54c-0.14,1.04-1.04,1.8-2.09,1.8l-76.41-0.35   c-0.99,0.06-1.86-0.7-1.94-1.68c0-0.03,0-0.03,0-0.06l0.14-22.15c0.06-1.04,0.93-1.86,1.97-1.8h0.03l59.02,0.2   c-0.93-2-1.8-4.09-2.61-6.23c-0.93-2.78-1.71-5.62-2.35-8.49l-0.2-1.07l-0.2-0.72v-0.46c-0.38-2.38-0.61-4.75-0.72-7.16l-53.34-0.2   c-4.06-0.14-7.51,3.01-7.68,7.1l-0.06,21.94c-9.33-0.2-9.33,17.02-0.14,17.07v21.02c0.06,0.99,0.87,1.77,1.88,1.74l4.2-0.06   c0.99-0.09,1.86,0.64,1.94,1.62c0,0.03,0,0.09,0,0.12v16.61c0.03,0.99,0.84,1.77,1.83,1.74c0.03,0,0.09,0,0.12,0h10.06   c1.01,0,1.94-0.81,1.74-1.68l0.26-16.47c0-1.04,0.84-1.88,1.86-1.88l0,0l48.73,0.41c0.93-0.12,1.74,0.55,1.86,1.45   c0,0.09,0,0.14,0,0.23l-0.06,16.32c-0.03,1.04,0.78,1.91,1.83,1.94c0.03,0,0.03,0,0.06,0h10.03c1.01,0,1.94-0.81,1.74-1.74   l0.26-16.47c0-0.96,0.78-1.74,1.74-1.74c0.06,0,0.09,0,0.14,0h3.94c0.96,0,1.77-0.78,1.8-1.74l0.06-15.19L-651.52-1547.87z    M-732.11-1529.32c-4.15,0.12-7.6-3.16-7.68-7.31c0-0.09,0-0.17,0-0.26c0.23-4.06,3.62-7.22,7.68-7.16   c4.06-0.29,7.6,2.78,7.89,6.84c0.29,4.06-2.78,7.6-6.84,7.88C-731.38-1529.29-731.73-1529.29-732.11-1529.32 M-665.17-1529.58   c-4.12,0.17-7.6-3.01-7.77-7.13c0-0.03,0-0.06,0-0.09c0.2-4.17,3.65-7.42,7.83-7.36c4.03-0.29,7.54,2.72,7.83,6.75   c0.29,4.03-2.72,7.54-6.75,7.83C-664.42-1529.55-664.8-1529.55-665.17-1529.58"/>
	<path id="Path_16" class="st1" d="M-620.12-1600.14c-3.57-0.9-6.78-2.9-9.16-5.68c-2.35-2.96-3.74-6.58-3.94-10.38   c-0.61-0.2-2.75-0.61-5.48-1.13c-3.16-0.52-6.35-0.87-9.57-1.01c-3.13,0.15-6.26,0.49-9.36,1.01c-2.96,0.52-5.28,1.13-5.48,1.13   c-0.2,3.77-1.57,7.39-3.88,10.38c-2.46,2.84-5.77,4.84-9.42,5.68c0,0.15,0,0.72,0.06,1.8c0.12,2.2,0.38,4.38,0.72,6.55v0.2   c0.64,2.99,1.42,5.94,2.35,8.84c1.07,2.93,2.41,5.8,3.94,8.49c1.59,2.96,3.48,5.74,5.62,8.29c1.8,1.94,3.74,3.77,5.77,5.48   c2.99,2.49,6.26,4.64,9.71,6.44c2.32-1.19,4.55-2.55,6.7-4.09c3.97-2.81,7.51-6.15,10.49-9.97c3.36-4.46,6.09-9.42,8.03-14.67   c0.96-2.96,1.68-5.97,2.12-9.04C-620.33-1594.51-620.07-1597.33-620.12-1600.14 M-643.75-1577.53l-4.7,1.28l-4.2,1.13l-2.75-10.23   h-6.2c-0.03-4.9,3.94-8.9,8.84-8.93c0.23,0,0.43,0,0.67,0.03c1.19,0.06,2.38,0.41,3.42,1.01c3.04,1.62,4.96,4.78,4.96,8.23   L-643.75-1577.53z M-640.27-1573.29c-0.55-1.88-1.28-4.7-1.28-4.7v-7.1c0.03-5.48-3.86-10.23-9.25-11.31   c-0.64-0.14-1.28-0.2-1.94-0.2c-1.86-0.03-3.68,0.46-5.28,1.42c-0.75,0.41-1.48,0.9-2.15,1.48l-1.22-4.55l-0.06-0.41   c0.7-0.43,1.39-0.81,2.15-1.13c2.06-0.96,4.29-1.48,6.55-1.48c8.84-0.03,16.12,7.02,16.32,15.86v7.42l1.22,4.7L-640.27-1573.29z"/>
</g>
</svg>